<?xml version="1.0" standalone="no"?>
<!DOCTYPE svg PUBLIC "-//W3C//DTD SVG 1.1//EN" "http://www.w3.org/Graphics/SVG/1.1/DTD/svg11.dtd">
<svg xmlns="http://www.w3.org/2000/svg" id="uuid-edb8795d-ec3f-4a81-9d87-af2cc0bcdddd" data-name="Layer 2" viewBox="0 0 1000 947.22" width="1000" height="947.219970703125">
  <defs>
    <style>
      .uuid-17612910-2147-481d-817b-6e72f70bb849 {
        fill: #fff;
      }

      .uuid-cfd857ba-e9c3-416b-94dd-fe8518c457ae {
        fill: #f2a622;
      }

      .uuid-b3b13b45-b0b7-4dd1-a746-e53bdd9920ec {
        fill: #000100;
      }

      .uuid-5f30b403-d3aa-4dcd-b154-c010b60dbf62 {
        fill: #00a5df;
      }
    </style>
  </defs>
  <g id="uuid-cc83a99f-5478-4bec-b16c-de4e4ceb67a7" data-name="Layer 3">
    <g>
      <rect class="uuid-17612910-2147-481d-817b-6e72f70bb849" x="0" width="1000" height="947.22"/>
      <g>
        <path class="uuid-5f30b403-d3aa-4dcd-b154-c010b60dbf62" d="M44.26,262.93c15.25-5.11,16.75,13.77,24.23,21.38,15.12,15.37,45.8,17.8,65.78,11.78,11.21-3.38,26.21-20.75,36.98-18.82,2.3.41,18.08,21.88,23.9,25.87,18.83,12.9,51.91,17.65,74.23,14.97,15.41-1.85,41.26-19.71,54.71-19.89,11.28-.15,16.28,14.57,25.47,16.69,71.93,16.62,85.31-85.79,55.29-132.47-5.92-9.21-34.75-33.34-41.83-15.84-2.49,6.14,1.74,46.47-14.76,21.65-6.95-10.45-10.84-20.53-24.03-27.83-20.03-11.08-55.24-12.39-76.23-4.4-7.34,2.8-25.97,21.31-31.06,18.51-2.68-1.47-3.26-37.16-19.54-46.96-6.28-3.78-12.3-3.6-19.07-.64-2.21.96-10.21,10.27-11.34,10.09-7.4-1.17-3.77-19.66-4.77-25.55-3.81-22.47-18.59-57.81-44.29-61.42-2.18-.31-25.4,1.52-27.16,2.14-.5.18-4.96,7.84-7.46,7.44-6.57-1.8-3.96-8.15-8.29-8.02-18.07-5.3-39.02,1.29-54.45,10.36-7.28,4.66-16.96,8.66-20.58,16.97v235.06l23.13-20.54,21.13-30.51Z"/>
        <path class="uuid-5f30b403-d3aa-4dcd-b154-c010b60dbf62" d="M0,.13v57.32c8.69-4.44,16.73-11.13,25.94-14.6,11.51-4.33,34.79-9.41,46.91-7.47,5.43.87,11.82,8.01,18.89,7.49,3.91-.29,3.93-4.27,6.6-4.86,4.23-.94,8.66-.72,12.96-.61,7.19.18,14.58,1.2,21.02,4.43,13.27,6.65,27.66,29.36,31.88,40.85,1.83,4.99,3.39,10.07,4.74,15.21,1.24,4.73,2.3,9.51,3.2,14.32.01.06.16.73.14.74,29.19-11.32,46.59,16.1,50.78,41.9,33.03-27.85,90.6-24.05,121.38,6,2.18,2.13,5.33,8.81,5.83,8.67,1.83-.51,2.66-26.27,24.14-24.14,11.1,1.1,26.65,12.97,33.55,22.47,25.56,35.18,29.63,100.37,7.44,135.35-12.35,19.47-44.38,34.34-66.49,26.85-9.93-3.36-14.95-13.24-24.81-16.16-12.07,1.82-22.52,10.32-33.76,13.67-38.61,11.49-85.37,5.9-114.09-24.38-.36-.38-3.64-8.52-5.23-9.12-8.12-3.07-10.13,4.16-15.43,6.95-31.34,16.51-69.01,20.35-94.52-7.25-3.57-3.86-6.88-15.69-11.56-14.69l-28.92,36.73c-4.75,2.64-20.59,21.65-20.59,21.65v145.12h209.43l27.22-52.36c7.62-2.18,9.87,3.97,10.45,9.71l-24.05,42.65h271.2V.13C329.51,0,164.73.22,0,.13ZM40.9,378.63c-3.47,7.71-6.11,19.33-9.77,26.67-1.52,3.05-9.04,18.66-14.36,13.39-1.56-1.55,6.29-24.02,7.6-27.49,2.08-5.51,14.12-33.18,16.79-37.15,2.52-3.74,3.29-5.23,7.79-4.13,12.17,2.97-6.04,24.27-8.04,28.71ZM94.77,406.12c1.06-5.29,11.19-35.19,15.76-35.64,3.73-.37,3.8,2.63,5.15,4.8,1.22,1.95,2.12.84,1.54,4.92-1.28,9.01-14.49,27.14-15.73,37.67-11.27,14.17-8.58-2.53-6.72-11.74ZM120.94,469.09c-8.68.08-4.26-10.81-2.49-16.04,3.05-9.01,19.58-46.87,23.66-17.89-6.38,4.23-15.07,33.87-21.17,33.93ZM163.01,471.96c-1.85-.8-.77-36.96,10.53-34.08,7.84,2-.95,38.24-10.53,34.08ZM197.97,405.03c-3.19-2.15,5.73-40.06,12.5-34.51.47.39,3.25,10.38,3.12,11.79-.21,2.28-9.05,27.16-15.62,22.72ZM276.27,466.66c-.77.42-5.89.4-6.11.19-6.43-6.32,15.79-39.08,19.6-45.8,1.34-2.37,6.65-18.69,9.74-19.11,1.78-.24.58,1.42,1.28,1.8,1.31.71,6.9,3.64,7.11,6.23.26,3.24-28.77,55.13-31.62,56.69Z"/>
      </g>
      <path class="uuid-cfd857ba-e9c3-416b-94dd-fe8518c457ae" d="M999.98,356.96c-64.45,33.4-135.85,29.84-191.84-17.81-34.89-29.7-62.55-75.86-38.45-121.66,14.69-27.92,105.88-86.82,135.98-75.63,5.05,1.88,6.36,10.23,2.15,12.55-3.24,1.79-5.04-3.09-8.08-3.5-27.47-3.69-96.28,39.57-114.01,60.91-55.41,66.69,44.11,150.05,108.05,156.55,34.99,3.56,78.74-4.07,106.2-26.64v-193.48c-15.9-7.62-35.02-12.22-52.86-13.31-5.62-.34-38.8,3.23-39.33-2.58-.02-.26,1.9-4.57,2.13-4.69,2.87-1.61,39.17-2.52,44.49-2.11,14.52,1.11,32.76,5.64,45.56,12.57V.13h-139.8c-5.09,0,8.93,56.28,6.64,60.33-5.01,8.84-10.65-13.85-11.23-16.17-2.34-9.4-3-35.89-5.32-41.57-.58-1.43-2.57-2.23-3.79-2.59C729.06-.16,492.12.13,492.12.13v484.22h393.71c2.33-7.26,14.19-62.85,18.35-63.6,1.59-.29,2.59.73,3.73,1.57,9.18,6.77-12.56,50.6-10.55,62.03l102.63-2.02c-.09-41.51.08-83.86,0-125.37ZM641.8,87.28c6.37-4.52,10.02,2.81,10.87,3.36,11.26,7.28,72.43,65.98,80.6,76.95,4.28,5.75,8.98,11.28-3.69,6.86-9.54-3.32-65.75-62.2-77.63-73.65-1.42-1.36-16.85-8.76-10.15-13.52ZM680.04,311.96c-27.49-1.34-75.59-2.16-100.23-10.76-4.34-1.52-17.1-5.67-16.02-11.36,1.42-7.44,16.94.3,22.23,1.52,31.55,7.3,59.37,4.59,89.54,10.42,4.65.9,16.04,2.01,16.51,6.37.59,5.49-7.97,4.01-12.03,3.81ZM776.52,374.35c-11.75,19.62-30.99,37.47-44.15,55.87-4.59,6.41-12.48,24.74-15.02,27.61-1.41,1.6-7.39,2.03-8.33.54-7.97-12.73,56.11-81.16,60.81-97.01,13.43-.95,12.32,3.6,6.7,12.99Z"/>
      <path class="uuid-b3b13b45-b0b7-4dd1-a746-e53bdd9920ec" d="M0,482.33v464.89h999.98v-464.89H0ZM164.33,877.56h-76.44v-325.63h76.44v325.63ZM641.81,877.56h-75.39v-227.21l-102.72,225.53c-5.06,4.22-33.15.24-41.29,1.75l-98.92-227.29v227.21h-62.83v-325.63h90.05l97.9,233.5,108.37-233.5h84.81v325.63ZM756.74,873.09c-7.06-2.44-43.19-19.58-43.53-26.41-.13-2.55,26.22-41.79,28.73-42.27,1.87-.36,26.71,16.74,32.86,19.2,29.41,11.75,82.08,11.33,81.75-31.39-.42-55.29-123.08-79.48-128.86-155-4.26-55.71,47.38-86.89,97.15-90.21,27.27-1.82,59.63,3.56,83.24,17.68,2.67,1.6,17.19,11.94,17.28,13.92.11,2.42-26.36,38.71-28.75,39.1-1.85.3-25.94-14.09-33.88-16.05-21.78-5.35-59.63-3.84-57.63,27.25,1.52,23.55,62.16,60.82,80.68,77.44,119.04,106.79-6.44,209.02-129.05,166.74Z"/>
    </g>
  </g>
</svg>